<svg width="77" height="42" viewBox="0 0 77 42" fill="none" xmlns="http://www.w3.org/2000/svg">
<path d="M0.697876 21.1074V13.3148C0.697876 10.5318 2.2758 8.89355 4.68795 8.89355C7.1001 8.89355 8.27492 10.5943 8.27492 13.0065V17.5204H2.2758V20.8293C2.2758 22.9634 2.92464 24.108 5.0889 24.108C6.10851 24.108 7.03758 23.7372 7.68643 23.4268L8.14989 24.6016C7.28333 25.1578 6.07833 25.4984 4.87118 25.4984C2.24346 25.4984 0.697876 24.1382 0.697876 21.1074ZM6.78969 16.2205V12.9117C6.78969 11.6441 6.29605 10.2516 4.53274 10.2516C2.86213 10.2516 2.2758 11.6743 2.2758 12.972V16.2184H6.78969V16.2205Z" fill="black" stroke="black" stroke-miterlimit="10"/>
<path d="M11.4523 21.5707H12.9979C13.2135 23.209 13.7718 24.1381 15.2247 24.1381C16.4297 24.1381 17.2036 23.4267 17.2036 21.9436C17.2036 20.5834 16.0912 19.2534 15.2549 18.2015L13.7395 16.3476C12.6272 14.9249 11.8835 13.7501 11.8835 12.2649C11.8835 10.4714 12.9958 8.92578 15.3777 8.92578C17.2639 8.92578 18.6241 10.1308 18.7491 12.668L17.2639 12.7305C17.0785 10.9068 16.49 10.2256 15.285 10.2256C14.0477 10.2256 13.3687 11.0599 13.3687 12.142C13.3687 13.0085 13.7395 13.9053 14.7612 15.1103L16.6172 17.3371C18.0399 19.1607 18.6888 20.5834 18.6888 21.8833C18.6888 23.6768 17.5765 25.4702 15.1945 25.4702C12.875 25.4659 11.6075 23.9204 11.4523 21.5707Z" fill="black" stroke="black" stroke-miterlimit="10"/>
<path d="M20.756 30.3834L20.9715 29.0534C21.3725 29.146 21.7131 29.2086 22.1162 29.2086C22.765 29.2086 23.3837 28.9607 23.7243 27.6005L24.343 24.7874L20.7862 9.20215H22.3641L25.0543 21.5388H25.1168L27.529 9.20215H28.9819L25.2397 26.6735C24.7439 29.2409 23.9097 30.5688 22.2089 30.5688C21.8058 30.5688 21.3121 30.5386 20.756 30.3834Z" fill="black" stroke="black" stroke-miterlimit="10"/>
<path d="M32.3145 23.1793V3.17285H33.8601V22.871C33.8601 23.4897 34.2007 23.9531 34.9724 23.9531C35.2505 23.9531 35.5286 23.923 35.8066 23.8604V25.1603C35.3432 25.3155 34.9099 25.3758 34.4766 25.3758C32.9935 25.3737 32.3145 24.5395 32.3145 23.1793Z" fill="black" stroke="black" stroke-miterlimit="10"/>
<path d="M39.7191 21.2626V13.069C39.7191 10.3788 41.4501 8.89355 43.7092 8.89355C46.0287 8.89355 47.6368 10.2839 47.6368 12.9138V21.2001C47.6368 24.1058 45.9661 25.4984 43.6467 25.4984C41.1418 25.4984 39.7191 23.9506 39.7191 21.2626ZM46.0588 21.3229V12.9117C46.0588 11.4889 45.3776 10.2214 43.6467 10.2214C41.9157 10.2214 41.297 11.5213 41.297 12.9418V21.3208C41.297 22.7435 41.9459 24.1339 43.7092 24.1339C45.5954 24.1382 46.0588 22.7155 46.0588 21.3229Z" fill="black" stroke="black" stroke-miterlimit="10"/>
<path d="M57.8911 23.6728H57.8609C57.087 25.033 55.882 25.5288 54.8624 25.5288C52.8534 25.5288 51.7389 24.0759 51.7389 22.2199V12.2932C51.7389 10.282 53.1616 8.8916 55.078 8.8916C56.1601 8.8916 57.5203 9.3874 58.0161 10.8705H58.0786L58.1088 9.19986H59.4388V30.2259H57.8932V23.6728H57.8911ZM57.8911 20.7368V13.6555C57.8911 11.7995 56.6861 10.1613 55.2633 10.1613C53.9333 10.1613 53.2845 11.1809 53.2845 12.6359V21.7262C53.2845 23.0864 53.9333 24.1686 55.3862 24.1686C56.7162 24.1686 57.8911 22.5303 57.8911 20.7368Z" fill="black" stroke="black" stroke-miterlimit="10"/>
<path d="M69.4991 27.0851C67.5569 26.0634 64.968 25.6215 62.1959 25.8262V26.3393C64.7417 26.1561 67.115 26.5635 68.8999 27.5012C70.6632 28.4281 71.6418 29.7624 71.6699 31.2714L72.5127 31.1959C72.4847 29.5533 71.422 28.0961 69.4991 27.0851Z" fill="black" stroke="black" stroke-miterlimit="10"/>
<path d="M67.0654 28.7318C65.7656 28.0485 64.0454 27.7467 62.1959 27.8696V28.3848C63.8147 28.2813 65.3237 28.5507 66.4662 29.1479C67.6065 29.7471 68.2403 30.6072 68.2704 31.5794L69.1133 31.504C69.0853 30.3938 68.3631 29.413 67.0654 28.7318Z" fill="black" stroke="black" stroke-miterlimit="10"/>
<path d="M65.7139 31.8061C65.647 30.6442 64.123 29.8316 62.1937 29.9156V30.4308C63.6531 30.3877 64.7956 31.0042 64.8624 31.8816L65.7139 31.8061Z" fill="black" stroke="black" stroke-miterlimit="10"/>
<path d="M62.1959 24.2999C69.3051 23.7502 75.0068 26.7164 75.0672 30.9694L75.91 30.894C75.8518 26.3564 69.7729 23.1897 62.1937 23.7847V24.2999H62.1959Z" fill="black" stroke="black" stroke-miterlimit="10"/>
<path d="M60.8077 38.4904C58.1907 38.5012 55.785 37.9127 54.0347 36.8306C52.3037 35.7614 51.4177 34.3344 51.5384 32.8125H50.6934C50.5576 34.4723 51.519 36.0287 53.4074 37.1949C55.3086 38.3697 57.9191 39.0099 60.7581 38.9949C60.7602 38.9949 60.7602 38.9949 60.7624 38.9949L60.812 38.4904C60.8098 38.4904 60.8077 38.4904 60.8077 38.4904Z" fill="black" stroke="black" stroke-miterlimit="10"/>
<path d="M54.0993 32.8105C54.0196 33.9293 54.6706 34.977 55.9445 35.7616C57.2379 36.5613 59.0142 36.9946 60.9456 36.9882C60.9499 36.9882 60.9542 36.9882 60.9564 36.9882L61.006 36.4837C60.9995 36.4837 60.9952 36.4837 60.9909 36.4837C59.2858 36.4924 57.7165 36.1087 56.5718 35.4038C55.4531 34.7118 54.8797 33.7957 54.9443 32.8127H54.0993V32.8105Z" fill="black" stroke="black" stroke-miterlimit="10"/>
<path d="M58.3524 32.8105H57.5009C57.4556 34.022 59.0572 34.9899 61.1266 34.9791C61.1353 34.9791 61.1417 34.977 61.1504 34.977L61.1978 34.4768C61.1892 34.4768 61.1805 34.4747 61.1719 34.4747C59.5724 34.4833 58.3351 33.7418 58.3524 32.8105Z" fill="black" stroke="black" stroke-miterlimit="10"/>
<path d="M60.6179 40.4954C53.3599 40.5277 47.7704 37.0852 48.1347 32.8105H47.2897C46.8952 37.3632 52.8447 41.0364 60.5705 40.9998L60.6179 40.4954Z" fill="black" stroke="black" stroke-miterlimit="10"/>
<path d="M63.403 2.79543H62.0773V2H65.6535V2.79543H64.3278V9.0446H63.4009V2.79543H63.403ZM66.3606 2H67.4858L68.5464 5.09117L69.5832 2H70.6654V9.0446H69.8031V3.74606L68.8762 6.52898H68.1929L67.2207 3.7245V9.04676H66.3584V2H66.3606Z" fill="black" stroke="black" stroke-miterlimit="10"/>
</svg>
