<svg width="124" height="21" viewBox="0 0 124 21" fill="none" xmlns="http://www.w3.org/2000/svg">
<g clip-path="url(#clip0_23_5)">
<path d="M0.877758 14.8161C2.16304 14.8161 3.47967 14.8788 4.76495 14.8161C5.95618 14.7533 7.08472 14.5022 7.30416 12.9954C7.49225 11.5201 6.89663 10.6412 5.26652 10.1389C4.51416 9.9192 3.7618 9.73086 3.04079 9.44835C0.626971 8.53804 -0.156736 7.28243 0.0627017 4.77122C0.219443 2.66808 1.75551 0.941627 3.85585 0.564946C4.60821 0.407995 5.42326 0.376605 6.20697 0.376605C41.5679 0.376605 76.9288 0.376605 112.29 0.345215C113.794 0.345215 114.484 0.878847 114.766 2.47974C114.077 2.47974 113.418 2.47974 112.76 2.47974C77.399 2.47974 42.0381 2.47974 6.6772 2.51113C5.73675 2.51113 4.63956 2.66808 3.85585 3.10755C2.19439 4.01786 2.35113 6.121 4.07529 6.90575C5.10978 7.3766 6.20697 7.72189 7.27281 8.16136C9.21641 9.00889 9.96877 10.5784 9.78068 13.2152C9.65529 15.0044 8.4954 16.5111 6.64585 16.8564C5.23517 17.1389 3.69911 17.2645 2.31978 17.0762C1.66147 16.982 1.12854 15.8833 0.564275 15.2555C0.65832 15.0986 0.752365 14.973 0.877758 14.8161Z" fill="#DAFFF0"/>
<path d="M116.71 6.52914C115.268 6.52914 113.951 6.46636 112.634 6.52914C111.318 6.59192 110.221 7.09417 110.095 8.5695C109.97 9.98206 110.785 10.7982 112.07 11.2063C112.823 11.426 113.575 11.583 114.327 11.8655C116.678 12.6816 117.713 14.2511 117.431 16.4798C117.149 18.9282 115.424 20.7175 113.105 20.9372C112.634 21 112.164 20.9686 111.694 20.9686C76.1764 20.9686 40.6588 20.9686 5.14112 21C3.57371 21 2.85269 20.4664 2.69595 18.8027C3.32292 18.8027 3.94989 18.8027 4.5455 18.8027C39.8437 18.8027 75.1733 18.8027 110.471 18.8027C110.942 18.8027 111.412 18.8027 111.882 18.8027C113.481 18.7713 114.547 17.9552 114.703 16.6368C114.892 15.1614 113.951 14.5964 112.791 14.1883C112.102 13.9372 111.443 13.5919 110.754 13.4036C108.026 12.6502 107.399 10.2646 107.744 7.97309C108.058 5.58744 109.531 4.4574 112.227 4.26905C112.791 4.23766 113.387 4.30044 113.951 4.20627C115.707 3.89237 116.428 4.80269 116.71 6.52914Z" fill="#DAFFF0"/>
<path d="M58.5273 4.4263C58.5273 8.69536 58.5273 12.8389 58.5273 17.1079C57.8063 17.1079 57.148 17.1079 56.3016 17.1079C56.3016 14.5653 56.3016 12.0227 56.3016 9.48012C56.1762 9.44873 56.0508 9.41734 55.9254 9.38594C55.2357 11.0496 54.6088 12.7761 53.825 14.377C53.5743 14.9106 52.9473 15.4129 52.383 15.6326C51.4426 15.9779 51.1604 15.1617 50.8783 14.4711C50.1573 12.7761 49.4676 11.081 48.4018 9.44873C48.4018 11.9599 48.4018 14.4711 48.4018 17.0765C47.5867 17.0765 46.9284 17.0765 46.2074 17.0765C46.2074 12.8703 46.2074 8.69536 46.2074 4.55186C48.6839 3.89267 48.9974 4.04962 49.9065 6.30971C50.6589 8.22451 51.4739 10.1393 52.4144 12.3994C53.2921 10.2021 54.0445 8.35007 54.7968 6.52944C55.7373 4.14379 55.7373 4.14379 58.5273 4.4263Z" fill="#DAFFF0"/>
<path d="M34.2951 16.9822C34.2951 16.5742 34.4831 16.0092 34.2637 15.7266C32.5709 13.341 33.1665 10.6414 33.3859 8.13023C33.6054 5.3679 36.4894 3.61005 39.3108 4.14368C40.5647 4.36341 41.756 5.11678 43.0412 4.30063C43.1666 4.23785 43.4174 4.36341 43.1666 4.52036C43.292 5.43068 43.4801 6.34099 43.4801 7.2513C43.5115 9.57417 43.7623 11.9598 43.3861 14.2199C43.0412 16.2289 40.5961 17.4845 38.339 17.3275C37.0224 17.2961 35.7057 17.1392 34.2951 16.9822ZM40.5647 7.00018C38.6838 5.74458 36.3954 5.9957 36.0192 7.62799C35.6117 9.57417 35.7684 11.6459 35.6744 13.6549C35.8625 13.6863 36.0192 13.6863 36.2073 13.7177C37.6493 11.5204 39.0913 9.29166 40.5647 7.00018ZM37.0224 14.8477C39.0914 15.6639 41.035 15.0047 41.2544 13.4038C41.4738 11.8657 41.2857 10.2648 41.2857 8.2244C39.7183 10.7042 38.4017 12.7446 37.0224 14.8477Z" fill="#DAFFF0"/>
<path d="M61.3487 4.30078C63.2296 4.30078 65.0164 4.30078 66.7719 4.30078C68.3707 4.30078 69.8127 4.58329 70.5024 6.27836C71.192 7.94204 70.5337 9.19764 69.2798 10.2335C71.098 11.8344 71.5682 13.09 70.9412 14.7223C70.3456 16.3546 68.9663 17.1394 66.6152 17.1394C64.891 17.1394 63.1669 17.1394 61.3173 17.1394C61.3487 12.9017 61.3487 8.6954 61.3487 4.30078ZM63.7311 15.0676C64.9851 15.0676 66.1449 15.1304 67.3048 15.0362C68.2766 14.9734 68.9036 14.2515 68.6528 13.3411C68.4647 12.682 67.8378 11.8344 67.2421 11.7089C66.1449 11.4577 64.9224 11.6461 63.7311 11.6461C63.7311 12.8703 63.7311 13.9376 63.7311 15.0676ZM63.7311 9.60572C64.8283 9.60572 65.9255 9.79406 66.866 9.54294C67.4929 9.3546 68.2139 8.53845 68.308 7.91065C68.3707 7.47119 67.5243 6.56087 66.96 6.43531C65.9569 6.18419 64.8597 6.37253 63.7625 6.37253C63.7311 7.47119 63.7311 8.47567 63.7311 9.60572Z" fill="#DAFFF0"/>
<path d="M21.8498 4.36349C23.9188 4.36349 25.8937 4.26932 27.8373 4.39488C29.5928 4.52044 30.8781 5.80744 31.2229 7.37695C31.6304 9.22896 30.8781 10.7357 28.7777 12.1482C29.7495 13.7178 30.7213 15.2873 31.7245 16.8882C29.6242 17.4846 29.4674 17.4218 28.4016 15.7267C28.0254 15.0989 27.5552 14.5339 27.2417 13.8747C26.6461 12.5877 25.737 12.0855 24.2009 12.5877C24.2009 14.0003 24.2009 15.4756 24.2009 17.0765C23.3231 17.0765 22.6335 17.0765 21.8184 17.0765C21.8498 12.8388 21.8498 8.63255 21.8498 4.36349ZM24.2636 10.7671C25.9251 10.2648 27.3671 9.95094 28.5897 9.32313C28.8718 9.16618 28.8718 7.56529 28.4643 7.09443C27.3671 5.77605 25.7683 6.2469 24.2322 6.34107C24.2636 7.69085 24.2636 8.88367 24.2636 10.7671Z" fill="#DAFFF0"/>
<path d="M91.6625 12.1482C92.697 13.8433 93.6374 15.3814 94.6406 16.9823C92.9164 17.4846 91.8192 17.1079 91.1296 15.5384C90.8788 14.9106 90.3145 14.4397 90.0637 13.8119C89.5308 12.5249 88.6217 12.1169 87.0856 12.5563C87.0856 13.9689 87.0856 15.507 87.0856 17.1079C86.1765 17.1079 85.5182 17.1079 84.7345 17.1079C84.7345 12.8702 84.7345 8.66394 84.7345 4.36349C86.7408 4.36349 88.7157 4.26932 90.6907 4.39488C92.3208 4.52044 93.512 5.49354 93.9822 7.09443C94.4838 8.85228 93.9196 10.4846 92.5089 11.5518C92.2581 11.7716 92.0073 11.9285 91.6625 12.1482ZM87.1483 10.3276C88.7784 10.0765 90.5026 10.9554 91.4744 9.29174C91.7879 8.75811 91.7565 7.59668 91.3803 7.12582C90.2831 5.74466 88.6844 6.2469 87.1483 6.27829C87.1483 7.65946 87.1483 8.88367 87.1483 10.3276Z" fill="#DAFFF0"/>
<path d="M106.145 8.44414C104.954 8.63248 104.17 8.66387 103.606 7.2827C103.105 6.0271 101.663 5.96432 100.44 6.27822C99.2801 6.56073 98.5277 7.37687 98.4964 8.63248C98.465 9.98225 98.4337 11.3634 98.4964 12.7132C98.5591 14.2199 99.6876 15.2558 101.286 15.2872C102.885 15.35 103.669 14.628 103.951 12.8074C103.418 12.7132 102.854 12.619 102.258 12.4935C102.258 11.8343 102.258 11.1751 102.258 10.4531C103.575 10.4531 104.797 10.4531 106.208 10.4531C106.208 11.6459 106.365 12.776 106.177 13.8746C105.801 16.1661 103.763 17.5159 101.161 17.3589C98.1516 17.1706 96.3334 15.6953 96.208 13.184C96.1453 11.4576 96.1139 9.73113 96.2707 8.00467C96.4901 5.49346 98.9353 3.7984 101.725 4.04952C104.766 4.36342 106.271 5.80736 106.145 8.44414Z" fill="#DAFFF0"/>
<path d="M82.1639 4.39453C82.1639 5.05372 82.1639 5.58736 82.1639 6.30933C80.0322 6.30933 77.9632 6.30933 75.7689 6.30933C75.7689 7.43937 75.7689 8.38108 75.7689 9.54251C77.6184 9.54251 79.4366 9.54251 81.4116 9.54251C81.4116 10.2645 81.4116 10.8295 81.4116 11.5515C79.5934 11.5515 77.7438 11.5515 75.7689 11.5515C75.7689 12.7443 75.7689 13.7488 75.7689 15.0044C77.9005 15.0044 80.0322 15.0044 82.2893 15.0044C82.2893 15.8205 82.2893 16.417 82.2893 17.0761C79.3112 17.0761 76.4272 17.0761 73.4177 17.0761C73.4177 12.8385 73.4177 8.66359 73.4177 4.39453C76.3018 4.39453 79.1231 4.39453 82.1639 4.39453Z" fill="#DAFFF0"/>
<path d="M19.9375 4.42627C19.9375 5.05407 19.9375 5.55631 19.9375 6.27829C19.3106 6.27829 18.7463 6.27829 18.182 6.27829C17.6178 6.27829 17.0535 6.27829 16.3011 6.27829C16.3011 9.91954 16.3011 13.4352 16.3011 17.0765C15.4234 17.0765 14.7337 17.0765 13.856 17.0765C13.856 13.5294 13.856 10.0137 13.856 6.34107C12.5707 6.34107 11.4421 6.34107 10.1882 6.34107C10.1882 5.65048 10.1882 5.11685 10.1882 4.45766C13.4171 4.42627 16.6146 4.42627 19.9375 4.42627Z" fill="#DAFFF0"/>
<path d="M123.951 3.04499C123.92 4.74006 122.697 5.93289 120.973 5.93289C119.218 5.93289 118.026 4.74006 118.026 3.0136C118.026 1.28715 119.374 -0.0626292 121.099 0.00015106C122.76 0.0629313 123.951 1.34993 123.951 3.04499ZM123.199 2.91943C123.168 1.50688 122.133 0.502393 120.816 0.565174C119.594 0.627954 118.685 1.66383 118.685 3.0136C118.685 4.42616 119.688 5.39925 121.036 5.33647C122.321 5.27369 123.23 4.23782 123.199 2.91943Z" fill="#DAFFF0"/>
<path d="M121.694 4.83416C121.443 4.33191 121.193 3.86106 120.942 3.32743C120.66 3.79828 120.44 4.14357 120.221 4.52025C120.127 4.48886 120.033 4.48886 119.939 4.45747C119.939 3.48438 119.939 2.51128 119.939 1.5068C121.945 1.00456 122.29 1.28707 122.008 3.20187C121.945 3.60994 122.133 4.0494 122.196 4.45747C122.039 4.58303 121.851 4.70859 121.694 4.83416Z" fill="#DAFFF0"/>
</g>
<defs>
<clipPath id="clip0_23_5">
<rect width="123.951" height="21" fill="white"/>
</clipPath>
</defs>
</svg>
