<svg width="105" height="55" viewBox="0 0 105 55" fill="none" xmlns="http://www.w3.org/2000/svg">
<path d="M1 27.1438V16.4815C1 12.6737 3.15901 10.4321 6.45947 10.4321C9.75993 10.4321 11.3674 12.7593 11.3674 16.0597V22.2359H3.15901V26.7633C3.15901 29.6833 4.0468 31.2495 7.00807 31.2495C8.40317 31.2495 9.67439 30.7422 10.5622 30.3175L11.1963 31.9249C10.0106 32.6859 8.36188 33.1519 6.71017 33.1519C3.11477 33.1519 1 31.2908 1 27.1438ZM9.33521 20.4574V15.9299C9.33521 14.1957 8.65978 12.2903 6.24711 12.2903C3.96127 12.2903 3.15901 14.237 3.15901 16.0125V20.4544H9.33521V20.4574Z" fill="black" stroke="black" stroke-miterlimit="10"/>
<path d="M15.7149 27.7782H17.8297C18.1246 30.0198 18.8885 31.291 20.8765 31.291C22.5252 31.291 23.5841 30.3177 23.5841 28.2884C23.5841 26.4273 22.0622 24.6075 20.9178 23.1681L18.8443 20.6316C17.3224 18.6849 16.3048 17.0775 16.3048 15.0453C16.3048 12.5913 17.8267 10.4766 21.0859 10.4766C23.6667 10.4766 25.5278 12.1253 25.6989 15.5968L23.6667 15.6824C23.413 13.1871 22.6078 12.2551 20.9591 12.2551C19.2661 12.2551 18.337 13.3965 18.337 14.8772C18.337 16.0629 18.8443 17.2898 20.2423 18.9386L22.7818 21.9854C24.7285 24.4807 25.6163 26.4273 25.6163 28.2058C25.6163 30.6598 24.0944 33.1138 20.8352 33.1138C17.6616 33.1079 15.9273 30.9931 15.7149 27.7782Z" fill="black" stroke="black" stroke-miterlimit="10"/>
<path d="M28.4448 39.836L28.7398 38.0162C29.2884 38.143 29.7544 38.2285 30.3059 38.2285C31.1937 38.2285 32.0402 37.8893 32.5062 36.0282L33.3527 32.1792L28.4861 10.8545H30.6451L34.3261 27.7343H34.4116L37.7121 10.8545H39.7L34.5797 34.76C33.9013 38.2728 32.7599 40.0896 30.4328 40.0896C29.8812 40.0896 29.2058 40.0484 28.4448 39.836Z" fill="black" stroke="black" stroke-miterlimit="10"/>
<path d="M44.2599 29.9785V2.60449H46.3747V29.5568C46.3747 30.4033 46.8407 31.0374 47.8966 31.0374C48.2771 31.0374 48.6576 30.9961 49.038 30.9106V32.6891C48.4039 32.9015 47.8111 32.984 47.2182 32.984C45.189 32.9811 44.2599 31.8396 44.2599 29.9785Z" fill="black" stroke="black" stroke-miterlimit="10"/>
<path d="M54.3914 27.3562V16.1453C54.3914 12.4643 56.7598 10.4321 59.8508 10.4321C63.0245 10.4321 65.2248 12.3345 65.2248 15.9329V27.2707C65.2248 31.2465 62.9389 33.1519 59.7653 33.1519C56.338 33.1519 54.3914 31.0342 54.3914 27.3562ZM63.0658 27.4388V15.9299C63.0658 13.9833 62.1337 12.249 59.7653 12.249C57.3969 12.249 56.5504 14.0275 56.5504 15.9712V27.4358C56.5504 29.3825 57.4382 31.2849 59.8508 31.2849C62.4316 31.2908 63.0658 29.3441 63.0658 27.4388Z" fill="black" stroke="black" stroke-miterlimit="10"/>
<path d="M79.2554 30.6542H79.2141C78.1552 32.5153 76.5065 33.1937 75.1114 33.1937C72.3625 33.1937 70.8376 31.2058 70.8376 28.6663V15.0839C70.8376 12.3321 72.7842 10.4297 75.4063 10.4297C76.8869 10.4297 78.7481 11.1081 79.4264 13.1373H79.512L79.5533 10.8515H81.3731V39.6206H79.2583V30.6542H79.2554ZM79.2554 26.637V16.948C79.2554 14.4085 77.6066 12.1669 75.66 12.1669C73.8401 12.1669 72.9524 13.562 72.9524 15.5529V27.9908C72.9524 29.852 73.8401 31.3326 75.8281 31.3326C77.6479 31.3326 79.2554 29.091 79.2554 26.637Z" fill="black" stroke="black" stroke-miterlimit="10"/>
<path d="M95.1383 35.3231C92.4808 33.9251 88.9385 33.3204 85.1454 33.6006V34.3026C88.6288 34.0519 91.8761 34.6093 94.3183 35.8924C96.731 37.1606 98.07 38.9863 98.1084 41.051L99.2616 40.9477C99.2233 38.7002 97.7692 36.7064 95.1383 35.3231Z" fill="black" stroke="black" stroke-miterlimit="10"/>
<path d="M91.8083 37.5763C90.0298 36.6413 87.6761 36.2284 85.1454 36.3965V37.1015C87.3605 36.9599 89.4251 37.3286 90.9883 38.1456C92.5486 38.9655 93.4158 40.1424 93.4571 41.4726L94.6103 41.3693C94.572 39.8504 93.5839 38.5083 91.8083 37.5763Z" fill="black" stroke="black" stroke-miterlimit="10"/>
<path d="M89.959 41.7824C89.8676 40.1926 87.7823 39.0806 85.1425 39.1957V39.9006C87.1393 39.8416 88.7025 40.6852 88.794 41.8856L89.959 41.7824Z" fill="black" stroke="black" stroke-miterlimit="10"/>
<path d="M85.1455 31.5122C94.8728 30.76 102.674 34.8185 102.757 40.6378L103.91 40.5346C103.83 34.326 95.5129 29.9932 85.1425 30.8072V31.5122H85.1455Z" fill="black" stroke="black" stroke-miterlimit="10"/>
<path d="M83.246 50.9286C79.6653 50.9433 76.3737 50.1381 73.9788 48.6575C71.6103 47.1945 70.3981 45.242 70.5633 43.1597H69.4071C69.2213 45.4308 70.5367 47.5603 73.1205 49.1559C75.7219 50.7634 79.2937 51.6394 83.1782 51.6188C83.1811 51.6188 83.1811 51.6188 83.1841 51.6188L83.2519 50.9286C83.2489 50.9286 83.246 50.9286 83.246 50.9286Z" fill="black" stroke="black" stroke-miterlimit="10"/>
<path d="M74.0672 43.1567C73.9581 44.6875 74.8489 46.121 76.592 47.1946C78.3617 48.2888 80.792 48.8817 83.4348 48.8728C83.4407 48.8728 83.4466 48.8728 83.4495 48.8728L83.5174 48.1826C83.5085 48.1826 83.5026 48.1826 83.4967 48.1826C81.1637 48.1944 79.0165 47.6694 77.4503 46.705C75.9195 45.7582 75.135 44.5046 75.2234 43.1597H74.0672V43.1567Z" fill="black" stroke="black" stroke-miterlimit="10"/>
<path d="M79.8865 43.1567H78.7215C78.6596 44.8143 80.851 46.1387 83.6825 46.1239C83.6943 46.1239 83.7032 46.121 83.715 46.121L83.7798 45.4367C83.768 45.4367 83.7562 45.4337 83.7444 45.4337C81.5559 45.4455 79.8629 44.4309 79.8865 43.1567Z" fill="black" stroke="black" stroke-miterlimit="10"/>
<path d="M82.9864 53.6716C73.0556 53.7158 65.4076 49.0055 65.906 43.1567H64.7499C64.2101 49.386 72.3506 54.4119 82.9215 54.3618L82.9864 53.6716Z" fill="black" stroke="black" stroke-miterlimit="10"/>
<path d="M86.7972 2.08836H84.9833V1H89.8764V2.08836H88.0625V10.6389H86.7942V2.08836H86.7972ZM90.8439 1H92.3835L93.8346 5.22954L95.2533 1H96.734V10.6389H95.5542V3.38907L94.2859 7.19684H93.3509L92.0207 3.35958V10.6418H90.8409V1H90.8439Z" fill="black" stroke="black" stroke-miterlimit="10"/>
</svg>
