<svg width="134" height="23" viewBox="0 0 134 23" fill="none" xmlns="http://www.w3.org/2000/svg">
<g clip-path="url(#clip0_169_90)">
<path d="M0.948568 16.0114C2.33754 16.0114 3.76039 16.0792 5.14937 16.0114C6.43671 15.9435 7.65629 15.6721 7.89344 14.0439C8.0967 12.4495 7.45303 11.4997 5.6914 10.9569C4.87835 10.7194 4.06529 10.5159 3.28611 10.2106C0.677549 9.22684 -0.169386 7.86994 0.0677557 5.15613C0.237143 2.88332 1.89714 1.01758 4.16692 0.610505C4.97998 0.440892 5.86079 0.406969 6.70773 0.406969C44.9214 0.406969 83.1351 0.406969 121.349 0.373047C122.975 0.373047 123.72 0.949731 124.025 2.67978C123.28 2.67978 122.568 2.67978 121.857 2.67978C83.6433 2.67978 45.4296 2.67978 7.21589 2.71371C6.19956 2.71371 5.01386 2.88332 4.16692 3.35823C2.37142 4.34199 2.54081 6.6148 4.40406 7.46287C5.52202 7.97171 6.70773 8.34486 7.85956 8.81977C9.95996 9.73568 10.773 11.4318 10.5698 14.2813C10.4342 16.2149 9.18078 17.8432 7.18201 18.2163C5.65753 18.5216 3.99753 18.6573 2.50693 18.4538C1.7955 18.352 1.21959 17.1647 0.609794 16.4863C0.711426 16.3167 0.813059 16.181 0.948568 16.0114Z" fill="#006C40"/>
<path d="M126.126 7.05596C124.567 7.05596 123.144 6.98812 121.722 7.05596C120.299 7.12381 119.113 7.66657 118.977 9.26093C118.842 10.7874 119.723 11.6694 121.112 12.1104C121.925 12.3479 122.738 12.5175 123.551 12.8228C126.092 13.7048 127.21 15.4009 126.905 17.8094C126.6 20.4554 124.737 22.389 122.23 22.6264C121.722 22.6943 121.213 22.6604 120.705 22.6604C82.3221 22.6604 43.939 22.6604 5.55589 22.6943C3.86202 22.6943 3.08284 22.1176 2.91346 20.3197C3.591 20.3197 4.26855 20.3197 4.91222 20.3197C43.0582 20.3197 81.238 20.3197 119.384 20.3197C119.892 20.3197 120.4 20.3197 120.908 20.3197C122.636 20.2858 123.788 19.4038 123.957 17.979C124.161 16.3847 123.144 15.7741 121.891 15.3331C121.146 15.0617 120.434 14.6885 119.689 14.485C116.742 13.6709 116.064 11.0927 116.437 8.6164C116.775 6.03828 118.368 4.81707 121.281 4.61353C121.891 4.57961 122.535 4.64746 123.144 4.54569C125.042 4.20646 125.821 5.19022 126.126 7.05596Z" fill="#006C40"/>
<path d="M63.2491 4.78295C63.2491 9.39643 63.2491 13.8742 63.2491 18.4877C62.4699 18.4877 61.7585 18.4877 60.8438 18.4877C60.8438 15.74 60.8438 12.9922 60.8438 10.2445C60.7083 10.2106 60.5728 10.1766 60.4373 10.1427C59.692 11.9406 59.0144 13.8064 58.1675 15.5364C57.8965 16.1131 57.2189 16.6559 56.6091 16.8933C55.5928 17.2665 55.2879 16.3845 54.983 15.6382C54.2038 13.8064 53.4585 11.9745 52.3067 10.2106C52.3067 12.9244 52.3067 15.6382 52.3067 18.4538C51.4259 18.4538 50.7145 18.4538 49.9353 18.4538C49.9353 13.9081 49.9353 9.39643 49.9353 4.91864C52.6116 4.20627 52.9504 4.37588 53.9328 6.81831C54.7459 8.88759 55.6267 10.9569 56.643 13.3993C57.5916 11.0247 58.4046 9.02328 59.2177 7.05577C60.234 4.47765 60.234 4.47765 63.2491 4.78295Z" fill="#006C40"/>
<path d="M37.0619 18.3519C37.0619 17.9109 37.2651 17.3003 37.028 16.995C35.1986 14.4169 35.8423 11.4995 36.0794 8.78571C36.3166 5.80053 39.4333 3.90086 42.4823 4.47754C43.8374 4.715 45.1247 5.52915 46.5137 4.64716C46.6492 4.57931 46.9202 4.715 46.6492 4.88462C46.7847 5.86837 46.988 6.85213 46.988 7.83588C47.0218 10.3462 47.2929 12.9243 46.8863 15.3667C46.5137 17.5377 43.8712 18.8946 41.4321 18.725C40.0092 18.6911 38.5864 18.5215 37.0619 18.3519ZM43.8374 7.5645C41.8047 6.2076 39.3317 6.47898 38.9251 8.24295C38.4847 10.3462 38.6541 12.585 38.5525 14.7561C38.7557 14.79 38.9251 14.79 39.1284 14.8239C40.6868 12.4494 42.2451 10.0409 43.8374 7.5645ZM40.0092 16.0451C42.2451 16.9271 44.3455 16.2148 44.5827 14.4847C44.8198 12.8225 44.6165 11.0925 44.6165 8.88748C42.9227 11.5674 41.4998 13.7723 40.0092 16.0451Z" fill="#006C40"/>
<path d="M66.2981 4.64746C68.3307 4.64746 70.2617 4.64746 72.1589 4.64746C73.8866 4.64746 75.445 4.95276 76.1903 6.78458C76.9356 8.58248 76.2242 9.93939 74.8691 11.0588C76.834 12.7889 77.3421 14.1458 76.6646 15.9098C76.0209 17.6737 74.5303 18.5218 71.9895 18.5218C70.1262 18.5218 68.263 18.5218 66.2642 18.5218C66.2981 13.9423 66.2981 9.39663 66.2981 4.64746ZM68.8728 16.2829C70.2279 16.2829 71.4813 16.3508 72.7348 16.249C73.785 16.1811 74.4626 15.4009 74.1915 14.4172C73.9883 13.7048 73.3107 12.7889 72.667 12.6532C71.4813 12.3818 70.1601 12.5853 68.8728 12.5853C68.8728 13.9083 68.8728 15.0617 68.8728 16.2829ZM68.8728 10.3804C70.0585 10.3804 71.2442 10.5839 72.2605 10.3125C72.9381 10.109 73.7172 9.22701 73.8189 8.54856C73.8866 8.07364 72.9719 7.08989 72.3622 6.9542C71.2781 6.68282 70.0924 6.88635 68.9066 6.88635C68.8728 8.07364 68.8728 9.15917 68.8728 10.3804Z" fill="#006C40"/>
<path d="M23.6125 4.71486C25.8484 4.71486 27.9827 4.61309 30.0831 4.74878C31.9803 4.88447 33.3692 6.2753 33.7419 7.97143C34.1823 9.97286 33.3692 11.6011 31.0994 13.1277C32.1496 14.8238 33.1998 16.5199 34.2839 18.25C32.0141 18.8945 31.8448 18.8267 30.6929 16.9948C30.2864 16.3164 29.7782 15.7058 29.4395 14.9934C28.7958 13.6026 27.8133 13.0598 26.1533 13.6026C26.1533 15.1291 26.1533 16.7235 26.1533 18.4535C25.2048 18.4535 24.4595 18.4535 23.5787 18.4535C23.6125 13.874 23.6125 9.32833 23.6125 4.71486ZM26.2211 11.6351C28.0166 11.0923 29.575 10.7531 30.8962 10.0746C31.2011 9.90502 31.2011 8.17496 30.7607 7.66613C29.575 6.24138 27.8472 6.75022 26.1872 6.85198C26.2211 8.31066 26.2211 9.59971 26.2211 11.6351Z" fill="#006C40"/>
<path d="M99.0575 13.1277C100.175 14.9595 101.192 16.6217 102.276 18.3517C100.413 18.8945 99.2269 18.4874 98.4816 16.7913C98.2106 16.1129 97.6008 15.604 97.3298 14.9256C96.7539 13.5347 95.7714 13.0937 94.1114 13.5687C94.1114 15.0952 94.1114 16.7574 94.1114 18.4874C93.129 18.4874 92.4175 18.4874 91.5706 18.4874C91.5706 13.9079 91.5706 9.36226 91.5706 4.71486C93.7388 4.71486 95.873 4.61309 98.0073 4.74878C99.7689 4.88447 101.056 5.93607 101.564 7.66613C102.106 9.56579 101.497 11.3298 99.9722 12.4831C99.7012 12.7206 99.4302 12.8902 99.0575 13.1277ZM94.1792 11.1602C95.9408 10.8888 97.8041 11.8386 98.8543 10.0407C99.193 9.46402 99.1592 8.20889 98.7526 7.70005C97.5669 6.20745 95.8392 6.75022 94.1792 6.78414C94.1792 8.27673 94.1792 9.59971 94.1792 11.1602Z" fill="#006C40"/>
<path d="M114.709 9.12488C113.422 9.32842 112.575 9.36234 111.965 7.86975C111.423 6.51284 109.864 6.445 108.543 6.78423C107.29 7.08953 106.477 7.97152 106.443 9.32842C106.409 10.7871 106.375 12.2797 106.443 13.7384C106.511 15.3666 107.73 16.4861 109.458 16.52C111.186 16.5879 112.033 15.8076 112.337 13.8401C111.762 13.7384 111.152 13.6366 110.508 13.5009C110.508 12.7885 110.508 12.0761 110.508 11.2959C111.931 11.2959 113.252 11.2959 114.777 11.2959C114.777 12.585 114.946 13.8062 114.743 14.9935C114.336 17.4698 112.134 18.9285 109.322 18.7589C106.07 18.5554 104.105 16.961 103.97 14.2472C103.902 12.3815 103.868 10.5157 104.037 8.64997C104.275 5.93616 106.917 4.10434 109.932 4.37572C113.218 4.71495 114.844 6.27539 114.709 9.12488Z" fill="#006C40"/>
<path d="M88.7927 4.74902C88.7927 5.4614 88.7927 6.03808 88.7927 6.8183C86.489 6.8183 84.2531 6.8183 81.8817 6.8183C81.8817 8.03952 81.8817 9.05719 81.8817 10.3123C83.8804 10.3123 85.8453 10.3123 87.9796 10.3123C87.9796 11.0925 87.9796 11.7032 87.9796 12.4834C86.0147 12.4834 84.0159 12.4834 81.8817 12.4834C81.8817 13.7724 81.8817 14.858 81.8817 16.2149C84.1853 16.2149 86.489 16.2149 88.9282 16.2149C88.9282 17.0968 88.9282 17.7414 88.9282 18.4538C85.7098 18.4538 82.5931 18.4538 79.3409 18.4538C79.3409 13.8742 79.3409 9.3625 79.3409 4.74902C82.4576 4.74902 85.5066 4.74902 88.7927 4.74902Z" fill="#006C40"/>
<path d="M21.546 4.78271C21.546 5.46117 21.546 6.00393 21.546 6.78415C20.8685 6.78415 20.2587 6.78415 19.6489 6.78415C19.0391 6.78415 18.4293 6.78415 17.6162 6.78415C17.6162 10.7192 17.6162 14.5185 17.6162 18.4535C16.6677 18.4535 15.9224 18.4535 14.9738 18.4535C14.9738 14.6203 14.9738 10.8209 14.9738 6.85199C13.5848 6.85199 12.3653 6.85199 11.0102 6.85199C11.0102 6.1057 11.0102 5.52901 11.0102 4.81664C14.4995 4.78271 17.955 4.78271 21.546 4.78271Z" fill="#006C40"/>
<path d="M133.951 3.29032C133.917 5.12214 132.596 6.4112 130.733 6.4112C128.836 6.4112 127.548 5.12215 127.548 3.2564C127.548 1.39066 129.005 -0.0680127 130.868 -0.000167463C132.664 0.0676777 133.951 1.4585 133.951 3.29032ZM133.138 3.15463C133.104 1.62812 131.986 0.542594 130.564 0.610439C129.242 0.678284 128.26 1.79773 128.26 3.2564C128.26 4.78292 129.344 5.83452 130.801 5.76667C132.19 5.69883 133.172 4.57938 133.138 3.15463Z" fill="#006C40"/>
<path d="M131.512 5.22376C131.241 4.681 130.97 4.17216 130.699 3.59547C130.394 4.10431 130.157 4.47746 129.92 4.88453C129.818 4.85061 129.717 4.85061 129.615 4.81669C129.615 3.76509 129.615 2.71348 129.615 1.62796C131.783 1.0852 132.156 1.3905 131.851 3.45978C131.783 3.90078 131.986 4.37569 132.054 4.81669C131.885 4.95238 131.681 5.08807 131.512 5.22376Z" fill="#006C40"/>
</g>
<defs>
<clipPath id="clip0_169_90">
<rect width="133.951" height="22.6942" fill="white"/>
</clipPath>
</defs>
</svg>
