<svg width="28" height="27" viewBox="0 0 28 27" fill="none" xmlns="http://www.w3.org/2000/svg">
<path d="M16.4387 5.82392C16.4387 8.61827 14.1456 10.8978 11.2992 10.8978C8.45275 10.8978 6.15965 8.61827 6.15965 5.82392C6.15965 3.02957 8.45275 0.75 11.2992 0.75C14.1456 0.75 16.4387 3.02957 16.4387 5.82392Z" stroke="#40465E" stroke-width="1.5"/>
<path fill-rule="evenodd" clip-rule="evenodd" d="M17 13.9086C16.0864 13.411 15.0705 13.04 13.9601 12.8452H8.5718C-0.951701 15.2812 -2.01683 26.1212 2.80757 25.9994C4.09737 25.9668 7.22071 25.9749 11.3491 25.9856C13.0769 25.9901 14.9808 25.995 17 25.9976V24.4976C15.0055 24.495 13.1195 24.4901 11.4027 24.4857H11.4026C7.24492 24.475 4.07963 24.4668 2.76971 24.4999C2.26403 24.5126 1.94397 24.3057 1.71944 23.7638C1.4562 23.1285 1.38715 22.0737 1.75192 20.7921C2.45638 18.3171 4.65964 15.4598 8.76601 14.3452H13.8242C15.0111 14.5716 16.0755 15.0398 17 15.664V13.9086Z" fill="#40465E"/>
<path d="M20.5 13V25.5" stroke="#4066FF" stroke-width="2" stroke-linecap="round"/>
<path d="M14 19H26.5" stroke="#4066FF" stroke-width="2" stroke-linecap="round"/>
</svg>
