<svg width="18" height="20" viewBox="0 0 18 20" fill="none" xmlns="http://www.w3.org/2000/svg">
<path d="M12.9481 4.21483C12.9481 6.05391 11.2591 7.67967 8.99997 7.67967C6.74084 7.67967 5.05186 6.05391 5.05186 4.21483C5.05186 2.37575 6.74084 0.75 8.99997 0.75C11.2591 0.75 12.9481 2.37575 12.9481 4.21483Z" fill="#DAFFF0" stroke="#DAFFF0" stroke-width="1.5"/>
<path d="M0.962278 15.2987C1.55464 13.4106 3.42354 11.2099 6.92504 10.3701H11.0754C14.0758 10.87 16.1142 12.9789 16.8982 14.969C17.2959 15.9785 17.3351 16.8637 17.1219 17.4531C17.0191 17.7371 16.86 17.9507 16.6498 18.1012C16.4413 18.2505 16.1423 18.3661 15.7146 18.3899C13.3142 18.3899 11.0537 18.3846 9.07761 18.38C5.771 18.3722 3.26045 18.3664 2.22244 18.3901C1.56682 18.4052 1.16948 18.11 0.948404 17.626C0.704366 17.0917 0.659143 16.2649 0.962278 15.2987Z" fill="#DAFFF0" stroke="#DAFFF0" stroke-width="1.5"/>
<path d="M1.23582 13.1337C1.11116 12.2321 1.81157 11.4282 2.72168 11.4282H15.2185C16.1491 11.4282 16.8551 12.2667 16.6966 13.1837L15.7336 18.7551C15.6093 19.4743 14.9854 19.9997 14.2555 19.9997H3.49205C2.74301 19.9997 2.10878 19.4471 2.00619 18.7051L1.23582 13.1337Z" fill="#78C2A5"/>
</svg>
