<svg width="23" height="26" viewBox="0 0 23 26" fill="none" xmlns="http://www.w3.org/2000/svg">
<path d="M16.4385 5.82386C16.4385 8.61818 14.1455 10.8977 11.2991 10.8977C8.45267 10.8977 6.1596 8.61818 6.1596 5.82386C6.1596 3.02954 8.45267 0.75 11.2991 0.75C14.1455 0.75 16.4385 3.02954 16.4385 5.82386Z" stroke="#40465E" stroke-width="1.5"/>
<path d="M1.03057 20.5862C1.8094 17.8499 4.23366 14.7618 8.66743 13.5947H13.8934C17.7043 14.2904 20.3309 17.2517 21.3517 20.1081C21.8663 21.5477 21.9377 22.865 21.6352 23.7866C21.4871 24.2376 21.2553 24.58 20.9546 24.8173C20.6596 25.0501 20.2561 25.2153 19.7026 25.2488C16.6903 25.2487 13.8544 25.2414 11.3759 25.235C7.23278 25.2243 4.08846 25.2162 2.78861 25.249C1.93273 25.2706 1.35371 24.8398 1.02657 24.0503C0.680065 23.2141 0.634768 21.9768 1.03057 20.5862Z" stroke="#40465E" stroke-width="1.5"/>
</svg>
