<svg width="27" height="27" viewBox="0 0 27 27" fill="none" xmlns="http://www.w3.org/2000/svg">
<path d="M16.4387 5.82392C16.4387 8.61827 14.1456 10.8978 11.2992 10.8978C8.45275 10.8978 6.15965 8.61827 6.15965 5.82392C6.15965 3.02957 8.45275 0.75 11.2992 0.75C14.1456 0.75 16.4387 3.02957 16.4387 5.82392Z" stroke="#40465E" stroke-width="1.5"/>
<path d="M26.7071 19.7071C27.0976 19.3166 27.0976 18.6834 26.7071 18.2929L20.3431 11.9289C19.9526 11.5384 19.3195 11.5384 18.9289 11.9289C18.5384 12.3195 18.5384 12.9526 18.9289 13.3431L24.5858 19L18.9289 24.6569C18.5384 25.0474 18.5384 25.6805 18.9289 26.0711C19.3195 26.4616 19.9526 26.4616 20.3431 26.0711L26.7071 19.7071ZM11 20L26 20V18L11 18V20Z" fill="#40465E"/>
<path fill-rule="evenodd" clip-rule="evenodd" d="M17 13.9086C16.0864 13.411 15.0705 13.04 13.9601 12.8452H8.5718C-0.951701 15.2812 -2.01683 26.1212 2.80757 25.9994C4.09737 25.9668 7.22071 25.9749 11.3491 25.9856C13.0769 25.9901 14.9808 25.995 17 25.9976V24.4976C15.0055 24.495 13.1195 24.4901 11.4027 24.4857H11.4026C7.24492 24.475 4.07963 24.4668 2.76971 24.4999C2.26403 24.5126 1.94397 24.3057 1.71944 23.7638C1.4562 23.1285 1.38715 22.0737 1.75192 20.7921C2.45638 18.3171 4.65964 15.4598 8.76601 14.3452H13.8242C15.0111 14.5716 16.0755 15.0398 17 15.664V13.9086Z" fill="#40465E"/>
</svg>
