<svg width="18" height="21" viewBox="0 0 18 21" fill="none" xmlns="http://www.w3.org/2000/svg">
<path d="M12.9481 4.42558C12.9481 6.41394 11.2233 8.10115 8.99997 8.10115C6.77663 8.10115 5.05186 6.41394 5.05186 4.42558C5.05186 2.43721 6.77663 0.75 8.99997 0.75C11.2233 0.75 12.9481 2.43721 12.9481 4.42558Z" fill="#DAFFF0" stroke="#DAFFF0" stroke-width="1.5"/>
<path d="M0.965278 16.0426C1.56471 14.0363 3.44359 11.7303 6.92935 10.8511H11.0724C14.0566 11.3743 16.1021 13.5822 16.8938 15.6922C17.2945 16.7604 17.3386 17.7091 17.118 18.3493C17.0113 18.659 16.8469 18.8883 16.6358 19.047C16.4281 19.2031 16.1338 19.3221 15.7135 19.3469C13.3142 19.3469 11.0545 19.3413 9.07882 19.3364C5.77155 19.3283 3.26005 19.3221 2.22159 19.3471C1.58757 19.3624 1.18455 19.0654 0.953944 18.5352C0.701838 17.9557 0.658834 17.0682 0.965278 16.0426Z" fill="#DAFFF0" stroke="#DAFFF0" stroke-width="1.5"/>
</svg>
